<mxfile host="app.diagrams.net" agent="Mozilla/5.0 (Windows NT 10.0; Win64; x64) AppleWebKit/537.36 (KHTML, like Gecko) Chrome/127.0.0.0 Safari/537.36" version="24.7.6" pages="2">
  <diagram name="Page-1" id="lO4TUu4KP0oCaUIwZlss">
    <mxGraphModel dx="875" dy="464" grid="1" gridSize="10" guides="1" tooltips="1" connect="1" arrows="1" fold="1" page="1" pageScale="1" pageWidth="850" pageHeight="1100" math="0" shadow="0">
      <root>
        <mxCell id="0" />
        <mxCell id="1" parent="0" />
        <mxCell id="JVkcqGGStXwB_NZOb1-i-1" value="A" style="whiteSpace=wrap;html=1;aspect=fixed;" parent="1" vertex="1">
          <mxGeometry x="80" y="260" width="100" height="100" as="geometry" />
        </mxCell>
        <mxCell id="JVkcqGGStXwB_NZOb1-i-2" value="Q" style="whiteSpace=wrap;html=1;aspect=fixed;" parent="1" vertex="1">
          <mxGeometry x="80" y="410" width="100" height="100" as="geometry" />
        </mxCell>
        <mxCell id="JVkcqGGStXwB_NZOb1-i-3" value="M" style="whiteSpace=wrap;html=1;aspect=fixed;" parent="1" vertex="1">
          <mxGeometry x="80" y="570" width="100" height="100" as="geometry" />
        </mxCell>
        <mxCell id="JVkcqGGStXwB_NZOb1-i-4" value="Controller" style="rounded=0;whiteSpace=wrap;html=1;" parent="1" vertex="1">
          <mxGeometry x="230" y="790" width="600" height="60" as="geometry" />
        </mxCell>
        <mxCell id="JVkcqGGStXwB_NZOb1-i-7" value="" style="endArrow=none;html=1;rounded=0;exitX=0;exitY=0.25;exitDx=0;exitDy=0;" parent="1" source="JVkcqGGStXwB_NZOb1-i-4" edge="1">
          <mxGeometry width="50" height="50" relative="1" as="geometry">
            <mxPoint x="560" y="590" as="sourcePoint" />
            <mxPoint x="30" y="240" as="targetPoint" />
            <Array as="points">
              <mxPoint x="30" y="805" />
            </Array>
          </mxGeometry>
        </mxCell>
        <mxCell id="JVkcqGGStXwB_NZOb1-i-9" value="Shift" style="whiteSpace=wrap;html=1;aspect=fixed;" parent="1" vertex="1">
          <mxGeometry x="344" y="420" width="80" height="80" as="geometry" />
        </mxCell>
        <mxCell id="JVkcqGGStXwB_NZOb1-i-10" value="" style="endArrow=classic;html=1;rounded=0;exitX=1;exitY=0.5;exitDx=0;exitDy=0;entryX=0;entryY=0.25;entryDx=0;entryDy=0;" parent="1" source="JVkcqGGStXwB_NZOb1-i-1" target="JVkcqGGStXwB_NZOb1-i-9" edge="1">
          <mxGeometry width="50" height="50" relative="1" as="geometry">
            <mxPoint x="540" y="570" as="sourcePoint" />
            <mxPoint x="590" y="520" as="targetPoint" />
            <Array as="points">
              <mxPoint x="240" y="310" />
              <mxPoint x="240" y="440" />
            </Array>
          </mxGeometry>
        </mxCell>
        <mxCell id="JVkcqGGStXwB_NZOb1-i-12" value="" style="endArrow=classic;html=1;rounded=0;exitX=1.002;exitY=0.686;exitDx=0;exitDy=0;entryX=0;entryY=0.75;entryDx=0;entryDy=0;exitPerimeter=0;" parent="1" source="JVkcqGGStXwB_NZOb1-i-2" target="JVkcqGGStXwB_NZOb1-i-9" edge="1">
          <mxGeometry width="50" height="50" relative="1" as="geometry">
            <mxPoint x="540" y="570" as="sourcePoint" />
            <mxPoint x="590" y="520" as="targetPoint" />
          </mxGeometry>
        </mxCell>
        <mxCell id="JVkcqGGStXwB_NZOb1-i-15" value="" style="endArrow=classic;html=1;rounded=0;entryX=0;entryY=0.75;entryDx=0;entryDy=0;" parent="1" target="JVkcqGGStXwB_NZOb1-i-1" edge="1">
          <mxGeometry width="50" height="50" relative="1" as="geometry">
            <mxPoint x="30" y="335" as="sourcePoint" />
            <mxPoint x="80" y="370" as="targetPoint" />
          </mxGeometry>
        </mxCell>
        <mxCell id="JVkcqGGStXwB_NZOb1-i-16" value="" style="endArrow=classic;html=1;rounded=0;entryX=0;entryY=0.75;entryDx=0;entryDy=0;" parent="1" edge="1">
          <mxGeometry width="50" height="50" relative="1" as="geometry">
            <mxPoint x="30" y="490" as="sourcePoint" />
            <mxPoint x="80" y="490" as="targetPoint" />
          </mxGeometry>
        </mxCell>
        <mxCell id="JVkcqGGStXwB_NZOb1-i-17" value="" style="endArrow=classic;html=1;rounded=0;entryX=0;entryY=0.75;entryDx=0;entryDy=0;" parent="1" edge="1">
          <mxGeometry width="50" height="50" relative="1" as="geometry">
            <mxPoint x="30" y="660" as="sourcePoint" />
            <mxPoint x="80" y="660" as="targetPoint" />
          </mxGeometry>
        </mxCell>
        <mxCell id="JVkcqGGStXwB_NZOb1-i-18" value="enable" style="text;html=1;align=center;verticalAlign=middle;whiteSpace=wrap;rounded=0;" parent="1" vertex="1">
          <mxGeometry x="160" y="780" width="60" height="30" as="geometry" />
        </mxCell>
        <mxCell id="JVkcqGGStXwB_NZOb1-i-22" value="32 bit" style="text;strokeColor=none;fillColor=none;align=left;verticalAlign=middle;spacingLeft=4;spacingRight=4;overflow=hidden;points=[[0,0.5],[1,0.5]];portConstraint=eastwest;rotatable=0;whiteSpace=wrap;html=1;" parent="1" vertex="1">
          <mxGeometry x="210" y="270" width="40" height="30" as="geometry" />
        </mxCell>
        <mxCell id="JVkcqGGStXwB_NZOb1-i-23" value="32 bit" style="text;strokeColor=none;fillColor=none;align=left;verticalAlign=middle;spacingLeft=4;spacingRight=4;overflow=hidden;points=[[0,0.5],[1,0.5]];portConstraint=eastwest;rotatable=0;whiteSpace=wrap;html=1;" parent="1" vertex="1">
          <mxGeometry x="200" y="440" width="40" height="30" as="geometry" />
        </mxCell>
        <mxCell id="JVkcqGGStXwB_NZOb1-i-25" value="" style="endArrow=classic;html=1;rounded=0;exitX=1;exitY=0.5;exitDx=0;exitDy=0;" parent="1" source="JVkcqGGStXwB_NZOb1-i-9" edge="1">
          <mxGeometry width="50" height="50" relative="1" as="geometry">
            <mxPoint x="464" y="470" as="sourcePoint" />
            <mxPoint x="514" y="460" as="targetPoint" />
          </mxGeometry>
        </mxCell>
        <mxCell id="JVkcqGGStXwB_NZOb1-i-26" value="" style="endArrow=none;html=1;rounded=0;" parent="1" edge="1">
          <mxGeometry width="50" height="50" relative="1" as="geometry">
            <mxPoint x="439" y="474" as="sourcePoint" />
            <mxPoint x="459" y="449" as="targetPoint" />
          </mxGeometry>
        </mxCell>
        <mxCell id="JVkcqGGStXwB_NZOb1-i-27" value="" style="endArrow=none;html=1;rounded=0;" parent="1" edge="1">
          <mxGeometry width="50" height="50" relative="1" as="geometry">
            <mxPoint x="200" y="322.5" as="sourcePoint" />
            <mxPoint x="220" y="297.5" as="targetPoint" />
          </mxGeometry>
        </mxCell>
        <mxCell id="JVkcqGGStXwB_NZOb1-i-28" value="" style="endArrow=none;html=1;rounded=0;" parent="1" edge="1">
          <mxGeometry width="50" height="50" relative="1" as="geometry">
            <mxPoint x="190" y="495" as="sourcePoint" />
            <mxPoint x="210" y="470" as="targetPoint" />
          </mxGeometry>
        </mxCell>
        <mxCell id="JVkcqGGStXwB_NZOb1-i-29" value="SUB" style="ellipse;whiteSpace=wrap;html=1;aspect=fixed;" parent="1" vertex="1">
          <mxGeometry x="514" y="420" width="80" height="80" as="geometry" />
        </mxCell>
        <mxCell id="JVkcqGGStXwB_NZOb1-i-30" value="32 bit" style="text;strokeColor=none;fillColor=none;align=left;verticalAlign=middle;spacingLeft=4;spacingRight=4;overflow=hidden;points=[[0,0.5],[1,0.5]];portConstraint=eastwest;rotatable=0;whiteSpace=wrap;html=1;" parent="1" vertex="1">
          <mxGeometry x="449" y="410" width="40" height="30" as="geometry" />
        </mxCell>
        <mxCell id="JVkcqGGStXwB_NZOb1-i-31" value="" style="endArrow=classic;html=1;rounded=0;exitX=1;exitY=0.5;exitDx=0;exitDy=0;entryX=0;entryY=1;entryDx=0;entryDy=0;" parent="1" source="JVkcqGGStXwB_NZOb1-i-3" target="JVkcqGGStXwB_NZOb1-i-29" edge="1">
          <mxGeometry width="50" height="50" relative="1" as="geometry">
            <mxPoint x="430" y="560" as="sourcePoint" />
            <mxPoint x="440" y="480" as="targetPoint" />
            <Array as="points">
              <mxPoint x="440" y="620" />
              <mxPoint x="440" y="490" />
            </Array>
          </mxGeometry>
        </mxCell>
        <mxCell id="JVkcqGGStXwB_NZOb1-i-32" value="" style="endArrow=none;html=1;rounded=0;" parent="1" edge="1">
          <mxGeometry width="50" height="50" relative="1" as="geometry">
            <mxPoint x="200" y="632.5" as="sourcePoint" />
            <mxPoint x="220" y="607.5" as="targetPoint" />
          </mxGeometry>
        </mxCell>
        <mxCell id="JVkcqGGStXwB_NZOb1-i-33" value="32 bit" style="text;strokeColor=none;fillColor=none;align=left;verticalAlign=middle;spacingLeft=4;spacingRight=4;overflow=hidden;points=[[0,0.5],[1,0.5]];portConstraint=eastwest;rotatable=0;whiteSpace=wrap;html=1;" parent="1" vertex="1">
          <mxGeometry x="200" y="580" width="40" height="30" as="geometry" />
        </mxCell>
        <mxCell id="e6jP10dAVwXw9fxKo5fb-1" value="" style="shape=trapezoid;perimeter=trapezoidPerimeter;whiteSpace=wrap;html=1;fixedSize=1;rotation=90;size=13.269999999999982;" vertex="1" parent="1">
          <mxGeometry x="634" y="443.9" width="90" height="32.2" as="geometry" />
        </mxCell>
        <mxCell id="e6jP10dAVwXw9fxKo5fb-2" value="" style="endArrow=classic;html=1;rounded=0;entryX=1;entryY=0.5;entryDx=0;entryDy=0;" edge="1" parent="1" target="e6jP10dAVwXw9fxKo5fb-1">
          <mxGeometry width="50" height="50" relative="1" as="geometry">
            <mxPoint x="679" y="540" as="sourcePoint" />
            <mxPoint x="674" y="580" as="targetPoint" />
          </mxGeometry>
        </mxCell>
        <mxCell id="e6jP10dAVwXw9fxKo5fb-3" value="Selec A" style="text;html=1;align=center;verticalAlign=middle;whiteSpace=wrap;rounded=0;" vertex="1" parent="1">
          <mxGeometry x="653" y="545" width="60" height="40" as="geometry" />
        </mxCell>
        <mxCell id="e6jP10dAVwXw9fxKo5fb-4" value="" style="endArrow=classic;html=1;rounded=0;exitX=1;exitY=0.5;exitDx=0;exitDy=0;entryX=0.5;entryY=1;entryDx=0;entryDy=0;" edge="1" parent="1" source="JVkcqGGStXwB_NZOb1-i-29" target="e6jP10dAVwXw9fxKo5fb-1">
          <mxGeometry width="50" height="50" relative="1" as="geometry">
            <mxPoint x="624" y="490" as="sourcePoint" />
            <mxPoint x="674" y="440" as="targetPoint" />
          </mxGeometry>
        </mxCell>
        <mxCell id="e6jP10dAVwXw9fxKo5fb-5" value="" style="endArrow=classic;html=1;rounded=0;exitX=1;exitY=0.25;exitDx=0;exitDy=0;entryX=0.25;entryY=1;entryDx=0;entryDy=0;" edge="1" parent="1" source="JVkcqGGStXwB_NZOb1-i-9" target="e6jP10dAVwXw9fxKo5fb-1">
          <mxGeometry width="50" height="50" relative="1" as="geometry">
            <mxPoint x="514" y="410" as="sourcePoint" />
            <mxPoint x="564" y="360" as="targetPoint" />
            <Array as="points">
              <mxPoint x="444" y="440" />
              <mxPoint x="444" y="380" />
              <mxPoint x="544" y="380" />
              <mxPoint x="624" y="380" />
              <mxPoint x="624" y="437" />
            </Array>
          </mxGeometry>
        </mxCell>
        <mxCell id="e6jP10dAVwXw9fxKo5fb-6" value="" style="endArrow=classic;html=1;rounded=0;exitX=0.5;exitY=0;exitDx=0;exitDy=0;" edge="1" parent="1" source="e6jP10dAVwXw9fxKo5fb-1">
          <mxGeometry width="50" height="50" relative="1" as="geometry">
            <mxPoint x="694" y="550" as="sourcePoint" />
            <mxPoint x="744" y="460" as="targetPoint" />
          </mxGeometry>
        </mxCell>
      </root>
    </mxGraphModel>
  </diagram>
  <diagram id="CjbROZYNH4RyM3bgBb6S" name="Page-2">
    <mxGraphModel dx="1050" dy="557" grid="1" gridSize="10" guides="1" tooltips="1" connect="1" arrows="1" fold="1" page="1" pageScale="1" pageWidth="850" pageHeight="1100" math="0" shadow="0">
      <root>
        <mxCell id="0" />
        <mxCell id="1" parent="0" />
      </root>
    </mxGraphModel>
  </diagram>
</mxfile>
